<?xml version="1.0" encoding="UTF-8"?>
<svg id="Layer_1" data-name="Layer 1" xmlns="http://www.w3.org/2000/svg" viewBox="0 0 474.72 101.71">
  <defs>
    <style>
      .cls-1 {
        fill: #459b45;
      }

      .cls-2 {
        fill: #604f30;
      }
    </style>
  </defs>
  <g>
    <path class="cls-2" d="m149.43,96.7l-18.7-52.32h14.1l12.17,37.85h-3.34l13.65-37.85h9.72l12.39,37.85h-3.27l13.14-37.85h13.28l-18.85,52.32h-10.91l-11.8-34.06h1.63l-12.17,34.06h-11.06Z"/>
    <path class="cls-2" d="m208.65,96.7l24.34-52.32h11.28l24.56,52.32h-13.73l-6.31-14.4,5.27,3.86h-30.72l5.2-3.86-6.31,14.4h-13.58Zm29.91-38.14l-8.61,20.63-2.15-3.49h21.74l-1.86,3.49-8.76-20.63h-.37Z"/>
    <path class="cls-2" d="m273.58,96.7v-52.32h13.73v40.96h22.41v11.35h-36.14Z"/>
    <path class="cls-2" d="m317.96,96.7v-52.32h13.73v22.41h.15l19.96-22.41h16.1l-25.38,27.53v-5.42l26.79,30.2h-16.47l-21-23.67h-.15v23.67h-13.73Z"/>
    <path class="cls-2" d="m394.17,97.59c-7.82,0-13.69-1.94-17.62-5.83-3.93-3.88-5.9-9.68-5.9-17.4v-29.98h13.73v30.13c0,3.81.79,6.69,2.38,8.65,1.58,1.96,4.06,2.93,7.42,2.93s5.84-.98,7.42-2.93c1.58-1.95,2.37-4.84,2.37-8.65v-30.13h13.51v29.98c0,7.72-1.93,13.52-5.79,17.4-3.86,3.88-9.7,5.83-17.51,5.83Z"/>
    <path class="cls-2" d="m428.16,96.7v-52.32h25.68c5.98,0,10.52,1.47,13.62,4.42,3.09,2.94,4.64,6.94,4.64,11.99s-1.55,8.98-4.64,11.95c-3.09,2.97-7.63,4.45-13.62,4.45h-11.95v19.52h-13.73Zm13.73-30.05h10.17c2.32,0,4.06-.51,5.19-1.52,1.14-1.01,1.71-2.46,1.71-4.34s-.57-3.34-1.71-4.38c-1.14-1.04-2.87-1.56-5.19-1.56h-10.17v11.8Z"/>
  </g>
  <g>
    <polygon class="cls-2" points="66.42 9.79 66.42 11.25 70.16 13.35 66.42 9.79"/>
    <path class="cls-1" d="m3.34,56.41l110.54,40.85,11.8-17.63-49.65-51.86,31.24,15.22,3.2-3.2L71.23,5.35h-1.2v1.2h-3.6l14.03,14.03c.2.2-.04.53-.29.4L45.59,2.54l-4.41,2,.4,4.01,6.01,4.01-.4,4.41.8,2.8-.8,2.4,31.76,28.13c3.08,3.91.17,9.23-4.39,7.23l-29.18-12.73-5.01,1.4-4.81-1.6-2.4,3.2-23.43-3-6.41,7v4.62Z"/>
    <path class="cls-2" d="m44.6,41.97l1.01-.28.96.42,29.18,12.73c.28.12.54.19.75.19.13,0,.42,0,.64-.46.24-.49.28-1.37-.35-2.27l-31.54-27.93-1.45-1.29.61-1.84.51-1.54-.55-1.93-.15-.53.05-.55.24-2.67-3.32-2.21v31.11s3.41-.95,3.41-.95Z"/>
    <polygon class="cls-2" points="107.87 46.55 105.99 45.64 89.52 37.61 110.46 59.49 110.47 43.95 109.35 45.07 107.87 46.55"/>
    <polygon class="cls-2" points="3.36 59.55 3.34 97.23 105.4 97.26 3.36 59.55"/>
  </g>
</svg>