<?xml version="1.0" encoding="UTF-8"?>
<svg id="Layer_1" data-name="Layer 1" xmlns="http://www.w3.org/2000/svg" viewBox="0 0 124.69 97.21">
  <defs>
    <style>
      .cls-1 {
        fill: #fff;
      }
    </style>
  </defs>
  <polygon class="cls-1" points="64.77 8.65 64.77 10.12 68.51 12.21 64.77 8.65"/>
  <path class="cls-1" d="m1.69,55.28l110.54,40.85,11.8-17.63-49.65-51.86,31.24,15.22,3.2-3.2L69.58,4.21h-1.2v1.2h-3.6l14.03,14.03c.2.2-.04.53-.29.4L43.94,1.41l-4.41,2,.4,4.01,6.01,4.01-.4,4.41.8,2.8-.8,2.4,31.76,28.13c3.08,3.91.17,9.23-4.39,7.23l-29.18-12.73-5.01,1.4-4.81-1.6-2.4,3.2-23.43-3-6.41,7v4.62Z"/>
  <path class="cls-1" d="m42.95,40.83l1.01-.28.96.42,29.18,12.73c.28.12.54.19.75.19.13,0,.42,0,.64-.46.24-.49.28-1.37-.35-2.27l-31.54-27.93-1.45-1.29.61-1.84.51-1.54-.55-1.93-.15-.53.05-.55.24-2.67-3.32-2.21v31.11s3.41-.95,3.41-.95Z"/>
  <polygon class="cls-1" points="106.22 45.42 104.34 44.5 87.87 36.48 108.81 58.35 108.82 42.81 107.7 43.94 106.22 45.42"/>
  <polygon class="cls-1" points="1.71 58.42 1.69 96.1 103.75 96.13 1.71 58.42"/>
</svg>