<?xml version="1.0" encoding="UTF-8"?>
<svg id="Layer_1" data-name="Layer 1" xmlns="http://www.w3.org/2000/svg" viewBox="0 0 234.66 154.86">
  <defs>
    <style>
      .cls-1 {
        fill: #459b45;
      }

      .cls-2 {
        fill: #604f30;
      }
    </style>
  </defs>
  <g>
    <path class="cls-2" d="m13.63,153.09L.87,117.37h9.63l8.31,25.84h-2.28l9.32-25.84h6.64l8.46,25.84h-2.23l8.97-25.84h9.07l-12.87,35.72h-7.45l-8.06-23.25h1.12l-8.31,23.25h-7.55Z"/>
    <path class="cls-2" d="m54.06,153.09l16.62-35.72h7.7l16.77,35.72h-9.37l-4.31-9.83,3.6,2.63h-20.98l3.55-2.63-4.31,9.83h-9.27Zm20.42-26.04l-5.88,14.08-1.47-2.38h14.84l-1.27,2.38-5.98-14.08h-.25Z"/>
    <path class="cls-2" d="m98.4,153.09v-35.72h9.37v27.97h15.3v7.75h-24.67Z"/>
    <path class="cls-2" d="m128.69,153.09v-35.72h9.37v15.3h.1l13.63-15.3h10.99l-17.33,18.8v-3.7l18.29,20.62h-11.25l-14.34-16.16h-.1v16.16h-9.37Z"/>
    <path class="cls-2" d="m180.73,153.7c-5.34,0-9.35-1.33-12.03-3.98-2.69-2.65-4.03-6.61-4.03-11.88v-20.47h9.37v20.57c0,2.6.54,4.57,1.62,5.9,1.08,1.33,2.77,2,5.07,2s3.98-.67,5.07-2c1.08-1.33,1.62-3.3,1.62-5.9v-20.57h9.22v20.47c0,5.27-1.32,9.23-3.95,11.88-2.63,2.65-6.62,3.98-11.96,3.98Z"/>
    <path class="cls-2" d="m203.93,153.09v-35.72h17.53c4.09,0,7.19,1.01,9.3,3.01,2.11,2.01,3.17,4.74,3.17,8.18s-1.06,6.13-3.17,8.16c-2.11,2.03-5.21,3.04-9.3,3.04h-8.16v13.33h-9.37Zm9.37-20.52h6.94c1.59,0,2.77-.35,3.55-1.04.78-.69,1.17-1.68,1.17-2.96s-.39-2.28-1.17-2.99c-.78-.71-1.96-1.06-3.55-1.06h-6.94v8.06Z"/>
  </g>
  <g>
    <polygon class="cls-2" points="124.56 7.79 124.56 9.25 128.3 11.35 124.56 7.79"/>
    <path class="cls-1" d="m61.48,54.41l110.54,40.85,11.8-17.63-49.65-51.86,31.24,15.22,3.2-3.2L129.37,3.35h-1.2v1.2h-3.6l14.03,14.03c.2.2-.04.53-.29.4L103.74.54l-4.41,2,.4,4.01,6.01,4.01-.4,4.41.8,2.8-.8,2.4,31.76,28.13c3.08,3.91.17,9.23-4.39,7.23l-29.18-12.73-5.01,1.4-4.81-1.6-2.4,3.2-23.43-3-6.41,7v4.62Z"/>
    <path class="cls-2" d="m102.74,39.97l1.01-.28.96.42,29.18,12.73c.28.12.54.19.75.19.13,0,.42,0,.64-.46.24-.49.28-1.37-.35-2.27l-31.54-27.93-1.45-1.29.61-1.84.51-1.54-.55-1.93-.15-.53.05-.55.24-2.67-3.32-2.21v31.11s3.41-.95,3.41-.95Z"/>
    <polygon class="cls-2" points="166.01 44.55 164.13 43.64 147.66 35.61 168.6 57.49 168.62 41.95 167.49 43.07 166.01 44.55"/>
    <polygon class="cls-2" points="61.5 57.55 61.48 95.23 163.54 95.26 61.5 57.55"/>
  </g>
</svg>